<svg width="463" height="275" viewBox="0 0 463 275" fill="none" xmlns="http://www.w3.org/2000/svg">
<path d="M179.5 164C199.974 164 216.571 147.435 216.571 127C216.571 106.565 199.974 90 179.5 90C159.026 90 142.429 106.565 142.429 127C142.429 147.435 159.026 164 179.5 164Z" fill="#666666"/>
<path d="M93 275C93 227.319 131.727 188.667 179.5 188.667C227.273 188.667 266 227.319 266 275H93Z" fill="#666666"/>
<path d="M339 155.2C351.545 155.2 361.714 145.082 361.714 132.6C361.714 120.118 351.545 110 339 110C326.455 110 316.286 120.118 316.286 132.6C316.286 145.082 326.455 155.2 339 155.2Z" fill="#666666"/>
<path d="M286 223C286 193.876 309.729 170.267 339 170.267C368.271 170.267 392 193.876 392 223H286Z" fill="#666666"/>
<path fill-rule="evenodd" clip-rule="evenodd" d="M455 81C455 96.464 440.673 109 423 109C417.033 109 411.448 107.571 406.667 105.083L391 109L396.353 96.5092C392.971 92.0692 391 86.736 391 81C391 65.536 405.327 53 423 53C440.673 53 455 65.536 455 81ZM411 77H403V85H411V77ZM443 77H435V85H443V77ZM419 77H427V85H419V77Z" fill="#666666"/>
<path fill-rule="evenodd" clip-rule="evenodd" d="M12.9 45.5001C12.9 70.4358 36.0021 90.6501 64.5 90.6501C74.121 90.6501 83.1271 88.3461 90.8368 84.3343L116.1 90.6501L107.468 70.5086C112.921 63.3492 116.1 54.7494 116.1 45.5001C116.1 20.5644 92.9979 0.350098 64.5 0.350098C36.0021 0.350098 12.9 20.5644 12.9 45.5001ZM83.85 39.0501H96.75V51.9501H83.85V39.0501ZM32.25 39.0501H45.15V51.9501H32.25V39.0501ZM70.95 39.0501H58.05V51.9501H70.95V39.0501Z" fill="#666666"/>
</svg>
