<svg width="36" height="36" viewBox="0 0 36 36" fill="none" xmlns="http://www.w3.org/2000/svg">
<path d="M16.382 6.02303L11.1236 2.69995L0 11.8384V35.0999H18L11.7303 26.1692L16.382 6.02303Z" fill="#D30B81"/>
<path d="M19.618 6.02303L24.8764 2.69995L36 11.8384V35.0999H18L24.2697 26.1692L19.618 6.02303Z" fill="#D30B81"/>
<path d="M11.4 2.1V0L16.2 1.8L16.8 5.4L11.4 2.1Z" fill="#D30B81"/>
<path d="M24.6 2.1V0L19.8 1.8L19.2 5.4L24.6 2.1Z" fill="#D30B81"/>
<path d="M12.6 30L16.2 6.30005L9 24.3L12.6 30Z" fill="#D30B81"/>
<path d="M23.4 30L19.8 6.30005L27 24.3L23.4 30Z" fill="#D30B81"/>
<path d="M0 7.50005V12.3L11.1 3.30005L0 7.50005Z" fill="#D30B81"/>
<path d="M36 7.50005V12.3L24.9 3.30005L36 7.50005Z" fill="#D30B81"/>
</svg>
